<mxfile host="app.diagrams.net" agent="Mozilla/5.0 (Windows NT 10.0; Win64; x64) AppleWebKit/537.36 (KHTML, like Gecko) Chrome/131.0.0.0 Safari/537.36" version="25.0.3">
  <diagram name="Страница — 1" id="6RHXHOOEr1zMjIZuIxQ-">
    <mxGraphModel dx="989" dy="514" grid="1" gridSize="10" guides="1" tooltips="1" connect="1" arrows="1" fold="1" page="1" pageScale="1" pageWidth="827" pageHeight="1169" math="0" shadow="0">
      <root>
        <mxCell id="0" />
        <mxCell id="1" parent="0" />
        <mxCell id="OuBsoAwwXYJWHdRlgY2e-2" value="DBObject&lt;br&gt;&lt;br&gt;id&lt;br&gt;&lt;br&gt;get_description()&lt;br&gt;SetDefaultAttributes()&lt;br&gt;SetAttributes()" style="rounded=1;whiteSpace=wrap;html=1;" vertex="1" parent="1">
          <mxGeometry x="330" y="90" width="150" height="110" as="geometry" />
        </mxCell>
        <mxCell id="OuBsoAwwXYJWHdRlgY2e-3" value="Pet&lt;br&gt;&lt;br&gt;breedCode&lt;br&gt;name&lt;br&gt;birthDate&lt;br&gt;ownerCode" style="rounded=1;whiteSpace=wrap;html=1;" vertex="1" parent="1">
          <mxGeometry x="10" y="280" width="150" height="110" as="geometry" />
        </mxCell>
        <mxCell id="OuBsoAwwXYJWHdRlgY2e-4" value="Owner&lt;br&gt;&lt;br&gt;fullName&lt;br&gt;address" style="rounded=1;whiteSpace=wrap;html=1;" vertex="1" parent="1">
          <mxGeometry x="170" y="280" width="150" height="110" as="geometry" />
        </mxCell>
        <mxCell id="OuBsoAwwXYJWHdRlgY2e-5" value="Breed&lt;br&gt;&lt;br&gt;breedName" style="rounded=1;whiteSpace=wrap;html=1;" vertex="1" parent="1">
          <mxGeometry x="330" y="280" width="150" height="110" as="geometry" />
        </mxCell>
        <mxCell id="OuBsoAwwXYJWHdRlgY2e-6" value="Vaccine&lt;br&gt;&lt;br&gt;vaccineName&lt;br&gt;comment" style="rounded=1;whiteSpace=wrap;html=1;" vertex="1" parent="1">
          <mxGeometry x="490" y="280" width="150" height="110" as="geometry" />
        </mxCell>
        <mxCell id="OuBsoAwwXYJWHdRlgY2e-7" value="PetVaccine&lt;br&gt;&lt;br&gt;petCode&lt;br&gt;vaccineCode&lt;div&gt;date&lt;/div&gt;" style="rounded=1;whiteSpace=wrap;html=1;" vertex="1" parent="1">
          <mxGeometry x="650" y="280" width="150" height="110" as="geometry" />
        </mxCell>
        <mxCell id="OuBsoAwwXYJWHdRlgY2e-8" value="" style="endArrow=none;html=1;rounded=0;exitX=0.5;exitY=1;exitDx=0;exitDy=0;" edge="1" parent="1" source="OuBsoAwwXYJWHdRlgY2e-2">
          <mxGeometry width="50" height="50" relative="1" as="geometry">
            <mxPoint x="390" y="410" as="sourcePoint" />
            <mxPoint x="405" y="240" as="targetPoint" />
          </mxGeometry>
        </mxCell>
        <mxCell id="OuBsoAwwXYJWHdRlgY2e-9" value="" style="endArrow=none;html=1;rounded=0;" edge="1" parent="1">
          <mxGeometry width="50" height="50" relative="1" as="geometry">
            <mxPoint x="85" y="240" as="sourcePoint" />
            <mxPoint x="725" y="240" as="targetPoint" />
          </mxGeometry>
        </mxCell>
        <mxCell id="OuBsoAwwXYJWHdRlgY2e-10" value="" style="endArrow=none;html=1;rounded=0;exitX=0.5;exitY=0;exitDx=0;exitDy=0;" edge="1" parent="1" source="OuBsoAwwXYJWHdRlgY2e-3">
          <mxGeometry width="50" height="50" relative="1" as="geometry">
            <mxPoint x="390" y="410" as="sourcePoint" />
            <mxPoint x="85" y="240" as="targetPoint" />
          </mxGeometry>
        </mxCell>
        <mxCell id="OuBsoAwwXYJWHdRlgY2e-11" value="" style="endArrow=none;html=1;rounded=0;exitX=0.5;exitY=0;exitDx=0;exitDy=0;" edge="1" parent="1" source="OuBsoAwwXYJWHdRlgY2e-4">
          <mxGeometry width="50" height="50" relative="1" as="geometry">
            <mxPoint x="390" y="410" as="sourcePoint" />
            <mxPoint x="245" y="240" as="targetPoint" />
          </mxGeometry>
        </mxCell>
        <mxCell id="OuBsoAwwXYJWHdRlgY2e-12" value="" style="endArrow=none;html=1;rounded=0;exitX=0.5;exitY=0;exitDx=0;exitDy=0;" edge="1" parent="1" source="OuBsoAwwXYJWHdRlgY2e-5">
          <mxGeometry width="50" height="50" relative="1" as="geometry">
            <mxPoint x="390" y="410" as="sourcePoint" />
            <mxPoint x="405" y="240" as="targetPoint" />
          </mxGeometry>
        </mxCell>
        <mxCell id="OuBsoAwwXYJWHdRlgY2e-13" value="" style="endArrow=none;html=1;rounded=0;exitX=0.5;exitY=0;exitDx=0;exitDy=0;" edge="1" parent="1" source="OuBsoAwwXYJWHdRlgY2e-6">
          <mxGeometry width="50" height="50" relative="1" as="geometry">
            <mxPoint x="410" y="390" as="sourcePoint" />
            <mxPoint x="565" y="240" as="targetPoint" />
          </mxGeometry>
        </mxCell>
        <mxCell id="OuBsoAwwXYJWHdRlgY2e-17" value="" style="endArrow=none;html=1;rounded=0;exitX=0.5;exitY=0;exitDx=0;exitDy=0;" edge="1" parent="1" source="OuBsoAwwXYJWHdRlgY2e-7">
          <mxGeometry width="50" height="50" relative="1" as="geometry">
            <mxPoint x="410" y="390" as="sourcePoint" />
            <mxPoint x="725" y="240" as="targetPoint" />
          </mxGeometry>
        </mxCell>
      </root>
    </mxGraphModel>
  </diagram>
</mxfile>
